<?xml version="1.0" encoding="UTF-8" standalone="no"?>
<!-- Svg Vector Icons : http://www.onlinewebfonts.com/icon -->

<svg
   xmlns:dc="http://purl.org/dc/elements/1.1/"
   xmlns:cc="http://creativecommons.org/ns#"
   xmlns:rdf="http://www.w3.org/1999/02/22-rdf-syntax-ns#"
   xmlns:svg="http://www.w3.org/2000/svg"
   xmlns="http://www.w3.org/2000/svg"
   xmlns:sodipodi="http://sodipodi.sourceforge.net/DTD/sodipodi-0.dtd"
   xmlns:inkscape="http://www.inkscape.org/namespaces/inkscape"
   version="1.1"
   x="0px"
   y="0px"
   viewBox="0 0 24.000004 23.999996"
   enable-background="new 0 0 1000 1000"
   xml:space="preserve"
   id="svg12"
   sodipodi:docname="estudos.svg"
   width="24.000004"
   height="23.999996"
   inkscape:version="0.92.2 2405546, 2018-03-11"><defs
   id="defs16" /><sodipodi:namedview
   pagecolor="#ffffff"
   bordercolor="#666666"
   borderopacity="1"
   objecttolerance="10"
   gridtolerance="10"
   guidetolerance="10"
   inkscape:pageopacity="0"
   inkscape:pageshadow="2"
   inkscape:window-width="2560"
   inkscape:window-height="1016"
   id="namedview14"
   showgrid="false"
   fit-margin-top="0"
   fit-margin-left="0"
   fit-margin-right="0"
   fit-margin-bottom="0"
   inkscape:zoom="15.104"
   inkscape:cx="-6.6056803"
   inkscape:cy="5.5839254"
   inkscape:window-x="0"
   inkscape:window-y="27"
   inkscape:window-maximized="1"
   inkscape:current-layer="svg12" />
<metadata
   id="metadata2"> Svg Vector Icons : http://www.onlinewebfonts.com/icon <rdf:RDF><cc:Work
     rdf:about=""><dc:format>image/svg+xml</dc:format><dc:type
       rdf:resource="http://purl.org/dc/dcmitype/StillImage" /><dc:title></dc:title></cc:Work></rdf:RDF></metadata>
<g
   id="g10"
   transform="matrix(0.02391016,0,0,0.02337843,0.03666756,0.22793332)"
   style="fill:#ffffff;stroke:#000000;stroke-width:20.60772896;stroke-miterlimit:4;stroke-dasharray:none"><path
     d="m 753.3,313.5 c 0.6,-19 9,-163.5 -66.6,-242.5 -75.6,-79 -227.9,-83.2 -322,-52.5 -79.1,0 -99.1,0 -99.1,0 L 285.7,99 c 0,0 -72.2,14.6 -59.4,213.3 0,0 -45.4,-2.4 -38.1,106.8 49.7,0 208.3,23.5 311.6,104.4 105,-83.2 254.6,-104.3 291.5,-104.3 4,-17.3 3.4,-99 -38,-105.7 z"
     id="path4"
     inkscape:connector-curvature="0"
     style="fill:#ffffff;stroke:#000000;stroke-width:20.60772896;stroke-miterlimit:4;stroke-dasharray:none" /><path
     d="M 990,456.9 C 625.5,446.8 519.1,564.4 519.1,564.4 c 0,0 0,330.5 0,434.8 C 676.6,919.7 990,944 990,944 985.7,912.2 972,851.9 928.2,803.3 Z"
     id="path6"
     inkscape:connector-curvature="0"
     style="fill:#ffffff;stroke:#000000;stroke-width:20.60772896;stroke-miterlimit:4;stroke-dasharray:none" /><path
     d="M 10.7,456.9 71.5,795.8 C 38.6,830.6 14.2,879.8 10,944 c 0,0 307.5,-36.3 471.5,55.1 0,-104.2 0,-434.8 0,-434.8 0,0 -105.1,-117.9 -470.8,-107.4 z"
     id="path8"
     inkscape:connector-curvature="0"
     style="fill:#ffffff;stroke:#000000;stroke-width:20.60772896;stroke-miterlimit:4;stroke-dasharray:none" /></g>
</svg>
