<?xml version="1.0" encoding="UTF-8" standalone="no"?>
<!-- Generator: Adobe Illustrator 19.0.0, SVG Export Plug-In . SVG Version: 6.00 Build 0)  -->

<svg
   version="1.1"
   id="Layer_1"
   x="0px"
   y="0px"
   viewBox="0 0 24.000002 29.468407"
   xml:space="preserve"
   sodipodi:docname="finances.svg"
   width="24.000002"
   height="29.468407"
   inkscape:version="1.1.1 (3bf5ae0d25, 2021-09-20, custom)"
   xmlns:inkscape="http://www.inkscape.org/namespaces/inkscape"
   xmlns:sodipodi="http://sodipodi.sourceforge.net/DTD/sodipodi-0.dtd"
   xmlns="http://www.w3.org/2000/svg"
   xmlns:svg="http://www.w3.org/2000/svg"><defs
   id="defs25" /><sodipodi:namedview
   id="namedview23"
   pagecolor="#ffffff"
   bordercolor="#666666"
   borderopacity="1.0"
   inkscape:pageshadow="2"
   inkscape:pageopacity="0.0"
   inkscape:pagecheckerboard="0"
   showgrid="false"
   fit-margin-top="0"
   fit-margin-left="0"
   fit-margin-right="0"
   fit-margin-bottom="0"
   inkscape:zoom="18.406873"
   inkscape:cx="8.936879"
   inkscape:cy="18.444197"
   inkscape:window-width="2560"
   inkscape:window-height="1048"
   inkscape:window-x="0"
   inkscape:window-y="32"
   inkscape:window-maximized="1"
   inkscape:current-layer="Layer_1" />
<rect
   x="5.9240704"
   y="23.544334"
   style="fill:#546a79;stroke-width:17.3746"
   width="3.0380085"
   height="2.4303954"
   id="rect2" /><rect
   x="0.4557243"
   y="0.4557243"
   style="fill:#8c6239;stroke-width:17.3746"
   width="3.0380085"
   height="28.557014"
   id="rect4" /><path
   style="fill:#a67c52;stroke-width:17.3746"
   d="M 23.544335,1.0632799 V 28.405126 c 0,0.334167 -0.273446,0.607613 -0.607613,0.607613 H 3.4936752 V 0.45572429 H 22.936722 c 0.334225,0 0.607613,0.27338853 0.607613,0.60755561 z m -3.645564,9.1139681 c 0,-3.5119205 -2.837485,-6.3615499 -6.349405,-6.3797374 -0.01214,0 -0.01824,0 -0.03039,0 -3.524064,0 -6.3797367,2.8556727 -6.3797367,6.3797374 0,3.51192 2.8374851,6.361549 6.3494057,6.379737 0.01214,0 0.01825,0 0.03039,0 3.524064,0 6.379737,-2.855673 6.379737,-6.379737 z M 8.9620789,25.974731 V 23.544335 H 5.9240704 v 2.430396 z"
   id="path6" /><path
   style="fill:#ffd248;stroke-width:17.3746"
   d="m 13.549423,3.797453 c -0.01214,0 -0.01825,0 -0.03039,0 -3.5240645,0 -6.3797372,2.8556727 -6.3797372,6.379737 0,3.51192 2.8374852,6.36155 6.3494052,6.379737 0.01214,0 0.01825,0 0.03039,0 3.524064,0 6.379737,-2.855672 6.379737,-6.379737 -5.8e-5,-3.5118625 -2.837543,-6.3614919 -6.349405,-6.379737 z"
   id="path8" /><path
   d="M 22.93678,0 H -2.26e-8 V 29.468406 H 22.936722 c 0.58626,0 1.06328,-0.47702 1.06328,-1.06328 V 1.0632799 C 24.00006,0.47701982 23.52304,0 22.93678,0 Z M 0.911391,0.91139103 H 3.0379509 V 28.557015 H 0.911391 Z M 23.088669,28.405126 c 0,0.0823 -0.06959,0.151889 -0.151889,0.151889 H 3.9493995 V 0.91139103 H 22.93678 c 0.0823,0 0.151889,0.0695846 0.151889,0.15188887 z"
   id="path10"
   style="stroke-width:1;stroke-miterlimit:4;stroke-dasharray:none;fill:#000000" /><rect
   x="18.683601"
   y="23.088669"
   width="3.0380085"
   height="0.91139102"
   id="rect12"
   style="stroke-width:1;stroke-miterlimit:4;stroke-dasharray:none;fill:#000000" /><rect
   x="15.645594"
   y="25.519007"
   width="6.0759592"
   height="0.91139102"
   id="rect14"
   style="stroke-width:1;stroke-miterlimit:4;stroke-dasharray:none;fill:#000000" /><path
   d="m 20.354495,10.177248 c 0,-1.8196743 -0.706896,-3.5319498 -1.990498,-4.8215379 C 17.080682,4.0664673 15.37163,3.3511678 13.551783,3.3417863 h -0.03275 c -3.7690782,0 -6.8354615,3.0663833 -6.8354615,6.8354617 0,1.819674 0.7068964,3.531949 1.9904988,4.821537 1.2833145,1.289243 2.9923667,2.004543 4.8145737,2.013924 h 0.03039 c 3.769078,0 6.835461,-3.066383 6.835461,-6.835461 z m -6.835461,5.92407 h -0.02803 c -3.251136,-0.01681 -5.8960404,-2.674373 -5.8960404,-5.92407 0,-3.2665615 2.6575094,-5.9240707 5.9240704,-5.9240707 h 0.02907 c 3.25056,0.017497 5.895004,2.6747758 5.895004,5.9240707 0,3.266561 -2.657509,5.92407 -5.92407,5.92407 z"
   id="path16"
   style="stroke-width:1;stroke-miterlimit:4;stroke-dasharray:none;fill:#000000" /><path
   d="M 14.734203,6.6835726 H 13.974701 V 5.3164572 H 13.06331 v 1.3671154 h -0.759502 c -0.586261,0 -1.06328,0.4770198 -1.06328,1.0632799 v 1.822782 c 0,0.5862605 0.477019,1.0632795 1.06328,1.0632795 h 2.430395 c 0.0823,0 0.151889,0.06959 0.151889,0.151889 v 1.822782 c 0,0.0823 -0.06959,0.151889 -0.151889,0.151889 h -2.430395 c -0.0823,0 -0.151889,-0.06958 -0.151889,-0.151889 v -0.911391 h -0.911391 v 0.911391 c 0,0.586261 0.477019,1.06328 1.06328,1.06328 h 0.759502 v 1.367116 h 0.911391 v -1.367116 h 0.759502 c 0.58626,0 1.06328,-0.477019 1.06328,-1.06328 v -1.822782 c 0,-0.58626 -0.47702,-1.0632795 -1.06328,-1.0632795 h -2.430395 c -0.0823,0 -0.151889,-0.069585 -0.151889,-0.151889 v -1.822782 c 0,-0.082304 0.06958,-0.1518889 0.151889,-0.1518889 h 2.430395 c 0.0823,0 0.151889,0.069585 0.151889,0.1518889 v 0.911391 h 0.911391 v -0.911391 c 0,-0.5862601 -0.47702,-1.0632799 -1.06328,-1.0632799 z"
   id="path18"
   style="stroke-width:0.999998" /><path
   d="M 5.4683461,26.430455 H 9.4177456 V 23.088669 H 5.4683461 Z M 6.3797947,24.00006 h 2.1265599 v 1.519004 H 6.3797947 Z"
   id="path20"
   style="stroke-width:1;stroke-miterlimit:4;stroke-dasharray:none;fill:#000000" />
</svg>
