<?xml version="1.0" encoding="UTF-8" standalone="no"?>
<!-- Generator: Adobe Illustrator 19.0.0, SVG Export Plug-In . SVG Version: 6.00 Build 0)  -->

<svg
   xmlns:dc="http://purl.org/dc/elements/1.1/"
   xmlns:cc="http://creativecommons.org/ns#"
   xmlns:rdf="http://www.w3.org/1999/02/22-rdf-syntax-ns#"
   xmlns:svg="http://www.w3.org/2000/svg"
   xmlns="http://www.w3.org/2000/svg"
   xmlns:sodipodi="http://sodipodi.sourceforge.net/DTD/sodipodi-0.dtd"
   xmlns:inkscape="http://www.inkscape.org/namespaces/inkscape"
   version="1.1"
   id="Capa_1"
   x="0px"
   y="0px"
   viewBox="0 0 24 26.00985"
   xml:space="preserve"
   sodipodi:docname="gtd.svg"
   width="24"
   height="26.00985"
   inkscape:version="0.92.2 2405546, 2018-03-11"><metadata
   id="metadata39"><rdf:RDF><cc:Work
       rdf:about=""><dc:format>image/svg+xml</dc:format><dc:type
         rdf:resource="http://purl.org/dc/dcmitype/StillImage" /><dc:title /></cc:Work></rdf:RDF></metadata><defs
   id="defs37" /><sodipodi:namedview
   pagecolor="#ffffff"
   bordercolor="#666666"
   borderopacity="1"
   objecttolerance="10"
   gridtolerance="10"
   guidetolerance="10"
   inkscape:pageopacity="0"
   inkscape:pageshadow="2"
   inkscape:window-width="2560"
   inkscape:window-height="1016"
   id="namedview35"
   showgrid="false"
   fit-margin-top="0"
   fit-margin-left="0"
   fit-margin-right="0"
   fit-margin-bottom="0"
   inkscape:zoom="12.136524"
   inkscape:cx="3.0516926"
   inkscape:cy="27.633562"
   inkscape:window-x="0"
   inkscape:window-y="27"
   inkscape:window-maximized="1"
   inkscape:current-layer="Capa_1" />

<g
   id="g4"
   transform="translate(-19.45339,-181.17235)">
</g>
<g
   id="g6"
   transform="translate(-19.45339,-181.17235)">
</g>
<g
   id="g8"
   transform="translate(-19.45339,-181.17235)">
</g>
<g
   id="g10"
   transform="translate(-19.45339,-181.17235)">
</g>
<g
   id="g12"
   transform="translate(-19.45339,-181.17235)">
</g>
<g
   id="g14"
   transform="translate(-19.45339,-181.17235)">
</g>
<g
   id="g16"
   transform="translate(-19.45339,-181.17235)">
</g>
<g
   id="g18"
   transform="translate(-19.45339,-181.17235)">
</g>
<g
   id="g20"
   transform="translate(-19.45339,-181.17235)">
</g>
<g
   id="g22"
   transform="translate(-19.45339,-181.17235)">
</g>
<g
   id="g24"
   transform="translate(-19.45339,-181.17235)">
</g>
<g
   id="g26"
   transform="translate(-19.45339,-181.17235)">
</g>
<g
   id="g28"
   transform="translate(-19.45339,-181.17235)">
</g>
<g
   id="g30"
   transform="translate(-19.45339,-181.17235)">
</g>
<g
   id="g32"
   transform="translate(-19.45339,-181.17235)">
</g>
<g
   id="g3731"
   transform="translate(8.4867791,-0.61786335)"><rect
     ry="1.895106"
     y="0.62278825"
     x="-8.4867792"
     height="26"
     width="24"
     id="rect24"
     style="fill:#ffffff;stroke-width:2.2578795" /><path
     style="stroke-width:0.1182266"
     inkscape:connector-curvature="0"
     id="path2"
     d="m 15.513221,2.3938633 c 0,-0.98081 -0.795192,-1.77600005 -1.776,-1.77600005 H -6.7107792 c -0.980808,0 -1.776,0.79519005 -1.776,1.77600005 V 24.851593 c 0,0.98093 0.795192,1.77612 1.776,1.77612 H 13.737103 c 0.980926,0 1.776,-0.79519 1.776,-1.776 V 2.3938633 Z M 0.97134879,24.144953 H -4.8217542 v -5.3202 h 5.79310299 z m 0,-7.92118 H -4.8217542 v -5.20197 h 5.79310299 z m 0,-7.8029597 H -4.8217542 v -5.32019 h 5.79310299 z m 6.65651201,15.7986197 -3.110069,-3.11006 1.324729,-1.32473 1.78534,1.78545 2.7960602,-2.79605 1.324729,1.32472 z m 0,-7.87389 -3.110069,-3.11007 1.324729,-1.32473 1.78534,1.78534 2.7960602,-2.79605 1.324729,1.32472 z m 0,-7.8740097 -3.110069,-3.11007 1.324729,-1.32473 1.78534,1.78534 2.7960602,-2.79605 1.324729,1.32472 z" /></g></svg>
