<?xml version="1.0" encoding="UTF-8" standalone="no"?>
<svg
   xmlns:dc="http://purl.org/dc/elements/1.1/"
   xmlns:cc="http://creativecommons.org/ns#"
   xmlns:rdf="http://www.w3.org/1999/02/22-rdf-syntax-ns#"
   xmlns:svg="http://www.w3.org/2000/svg"
   xmlns="http://www.w3.org/2000/svg"
   xmlns:sodipodi="http://sodipodi.sourceforge.net/DTD/sodipodi-0.dtd"
   xmlns:inkscape="http://www.inkscape.org/namespaces/inkscape"
   version="1.1"
   width="24"
   height="23.999992"
   id="svg16"
   viewBox="0 0 24 23.999992"
   sodipodi:docname="gtel-logo.svg"
   inkscape:version="0.92.2 2405546, 2018-03-11">
  <metadata
     id="metadata22">
    <rdf:RDF>
      <cc:Work
         rdf:about="">
        <dc:format>image/svg+xml</dc:format>
        <dc:type
           rdf:resource="http://purl.org/dc/dcmitype/StillImage" />
        <dc:title></dc:title>
      </cc:Work>
    </rdf:RDF>
  </metadata>
  <defs
     id="defs20" />
  <sodipodi:namedview
     pagecolor="#ffffff"
     bordercolor="#666666"
     borderopacity="1"
     objecttolerance="10"
     gridtolerance="10"
     guidetolerance="10"
     inkscape:pageopacity="0"
     inkscape:pageshadow="2"
     inkscape:window-width="2560"
     inkscape:window-height="1016"
     id="namedview18"
     showgrid="false"
     inkscape:zoom="1.5858201"
     inkscape:cx="257.10244"
     inkscape:cy="-19.399089"
     inkscape:window-x="0"
     inkscape:window-y="27"
     inkscape:window-maximized="1"
     inkscape:current-layer="svg16"
     fit-margin-top="0"
     fit-margin-left="0"
     fit-margin-right="0"
     fit-margin-bottom="0" />
  <g
     id="Layer1001"
     transform="matrix(0.15970107,0,0,0.15970107,-28.214822,-35.533086)">
    <g
       id="Layer1002">
      <path
         inkscape:connector-curvature="0"
         id="path2"
         style="fill:#009a79;fill-rule:evenodd"
         d="m 213.118,336.333 c -9.3268,-9.3268 -14.2291,-21.3883 -14.739,-34.0242 -0.5004,-12.4099 3.2354,-25.3732 11.1772,-36.8465 l 0.55,0.3345 c -5.845,10.9769 -8.0997,22.8779 -6.7925,34.186 1.3318,11.5166 6.3581,22.4194 15.0466,31.1079 8.6885,8.6885 19.5912,13.7147 31.1078,15.0465 11.3082,1.3072 23.2091,-0.9474 34.1861,-6.7925 l 0.3345,0.5501 c -11.4734,7.9418 -24.4367,11.6776 -36.8466,11.1772 -12.6359,-0.5099 -24.6974,-5.4123 -34.0241,-14.739 z m -15.5368,15.5368 c -12.8562,-12.8562 -19.7605,-29.3402 -20.777,-46.4686 -1.0263,-17.3028 3.9576,-35.2628 14.8828,-50.8064 l 0.6207,0.3777 c -8.0557,15.0106 -11.0214,31.6081 -8.9008,47.4649 2.0904,15.6295 9.1225,30.5432 21.093,42.5136 11.9705,11.9705 26.8842,19.0027 42.5136,21.093 15.8569,2.1206 32.4541,-0.8453 47.4649,-8.9008 l 0.3775,0.621 c -15.5436,10.9252 -33.5033,15.9089 -50.8062,14.8825 -17.1283,-1.0164 -33.6123,-7.9207 -46.4685,-20.7769 z m 8.1725,-8.1725 c -11.0625,-11.0626 -16.9539,-25.2959 -17.7316,-40.1271 -0.7725,-14.731 3.5015,-30.0517 12.7635,-43.4419 l 0.3853,0.2345 0.2305,0.1402 c -6.8031,12.8725 -9.3471,26.9874 -7.6361,40.4509 1.7187,13.5256 7.7318,26.3981 18.0327,36.699 10.3009,10.3009 23.1734,16.3141 36.6991,18.0328 13.4634,1.711 27.5784,-0.833 40.4509,-7.6361 l 0.1402,0.2304 0.2345,0.3853 c -13.3902,9.262 -28.711,13.5361 -43.4419,12.7636 -14.8312,-0.7777 -29.0646,-6.6691 -40.1271,-17.7316 z" />
      <path
         inkscape:connector-curvature="0"
         id="path4"
         style="fill:#0080b8;fill-rule:evenodd"
         d="m 256.4842,244.2036 c 12.6362,0.5096 24.6976,5.412 34.0244,14.7388 9.3268,9.3267 14.2291,21.3882 14.7388,34.0243 0.5006,12.4092 -3.2359,25.3732 -11.1774,36.8463 l -0.5501,-0.3344 c 5.8451,-10.977 8.0997,-22.878 6.7925,-34.1856 -1.3316,-11.5155 -6.3573,-22.4177 -15.047,-31.1074 -8.6897,-8.6897 -19.592,-13.7155 -31.1074,-15.047 -11.3077,-1.3072 -23.2086,0.9474 -34.1856,6.7925 l -0.3345,-0.5501 c 11.4731,-7.9416 24.4371,-11.6781 36.8463,-11.1774 z m 3.0922,-21.5745 c 17.1288,1.0164 33.6128,7.9207 46.4688,20.7767 12.8559,12.856 19.7602,29.3399 20.7767,46.4688 1.0268,17.3023 -3.9573,35.2625 -14.8823,50.8059 l -0.6207,-0.3777 c 8.0555,-15.0108 11.0214,-31.6081 8.9005,-47.4647 -2.0903,-15.6294 -9.1227,-30.5429 -21.0932,-42.5134 -11.9705,-11.9704 -26.8839,-19.0028 -42.5134,-21.0932 -15.8566,-2.1208 -32.4538,0.8451 -47.4646,8.9006 l -0.3778,-0.6208 c 15.5434,-10.9249 33.5036,-15.9091 50.806,-14.8822 z m -1.8308,11.2176 c 14.8312,0.7777 29.0643,6.6688 40.1271,17.7316 11.0627,11.0628 16.9539,25.2959 17.7316,40.1271 0.7725,14.7309 -3.5011,30.0512 -12.7633,43.4416 l -0.3853,-0.2345 -0.2305,-0.1401 c 6.8034,-12.8728 9.3469,-26.9873 7.6361,-40.4505 -1.7185,-13.5263 -7.7316,-26.3984 -18.0327,-36.6995 -10.3012,-10.3011 -23.1732,-16.3143 -36.6995,-18.0328 -13.4633,-1.7107 -27.5778,0.8328 -40.4505,7.6362 l -0.1402,-0.2305 -0.2345,-0.3853 c 13.3905,-9.2622 28.7107,-13.5358 43.4417,-12.7633 z" />
    </g>
    <path
       inkscape:connector-curvature="0"
       id="path7"
       style="fill:#009a79;fill-rule:evenodd"
       d="m 276.4202,273.0311 -14.8263,60.3021 0.5924,-46.0682 -46.0682,0.5924 z" />
  </g>
</svg>
