<?xml version="1.0" encoding="UTF-8" standalone="no"?>
<!-- Created with Inkscape (http://www.inkscape.org/) -->

<svg
   xmlns:dc="http://purl.org/dc/elements/1.1/"
   xmlns:cc="http://creativecommons.org/ns#"
   xmlns:rdf="http://www.w3.org/1999/02/22-rdf-syntax-ns#"
   xmlns:svg="http://www.w3.org/2000/svg"
   xmlns="http://www.w3.org/2000/svg"
   xmlns:sodipodi="http://sodipodi.sourceforge.net/DTD/sodipodi-0.dtd"
   xmlns:inkscape="http://www.inkscape.org/namespaces/inkscape"
   width="24"
   height="24"
   id="svg2443"
   sodipodi:version="0.32"
   inkscape:version="0.48.3.1 r9886"
   sodipodi:docname="notes.svg"
   inkscape:output_extension="org.inkscape.output.svg.inkscape"
   version="1.1">
  <defs
     id="defs2445" />
  <sodipodi:namedview
     id="base"
     pagecolor="#ffffff"
     bordercolor="#666666"
     borderopacity="1.0"
     inkscape:pageopacity="0.0"
     inkscape:pageshadow="2"
     inkscape:zoom="10.449969"
     inkscape:cx="35.117247"
     inkscape:cy="-6.6901134"
     inkscape:document-units="px"
     inkscape:current-layer="layer1"
     inkscape:window-width="1920"
     inkscape:window-height="1176"
     inkscape:window-x="0"
     inkscape:window-y="24"
     showguides="true"
     inkscape:guide-bbox="true"
     showgrid="false"
     inkscape:window-maximized="1" />
  <metadata
     id="metadata2448">
    <rdf:RDF>
      <cc:Work
         rdf:about="">
        <dc:format>image/svg+xml</dc:format>
        <dc:type
           rdf:resource="http://purl.org/dc/dcmitype/StillImage" />
      </cc:Work>
    </rdf:RDF>
  </metadata>
  <g
     inkscape:label="Calque 1"
     inkscape:groupmode="layer"
     id="layer1"
     transform="translate(0,-1028.3622)">
    <g
       id="g3574"
       transform="matrix(0.03589997,0,0,0.03589997,-1.8214879,1022.9351)">
      <rect
         ry="2.798789"
         y="193.79076"
         x="128.57143"
         height="624.28571"
         width="512.85712"
         id="rect2451"
         style="fill:#fff691;fill-opacity:1;fill-rule:nonzero;stroke:#000000;stroke-width:3;stroke-linecap:round;stroke-linejoin:round;stroke-miterlimit:4;stroke-opacity:1;stroke-dasharray:none;stroke-dashoffset:0" />
      <path
         transform="translate(56.999994,6.4285623)"
         d="m 258.57144,234.50504 c 0,16.17405 -13.11167,29.28571 -29.28572,29.28571 -16.17405,0 -29.28571,-13.11166 -29.28571,-29.28571 0,-16.17406 13.11166,-29.28572 29.28571,-29.28572 16.17405,0 29.28572,13.11166 29.28572,29.28572 z"
         sodipodi:ry="29.285715"
         sodipodi:rx="29.285715"
         sodipodi:cy="234.50504"
         sodipodi:cx="229.28572"
         id="path3422"
         style="fill:#ffffff;fill-opacity:1;fill-rule:nonzero;stroke:#000000;stroke-width:3;stroke-linecap:round;stroke-linejoin:round;stroke-miterlimit:4;stroke-opacity:1;stroke-dasharray:none;stroke-dashoffset:0"
         sodipodi:type="arc" />
      <path
         transform="translate(-41.571432,6.4285623)"
         d="m 258.57144,234.50504 c 0,16.17405 -13.11167,29.28571 -29.28572,29.28571 -16.17405,0 -29.28571,-13.11166 -29.28571,-29.28571 0,-16.17406 13.11166,-29.28572 29.28571,-29.28572 16.17405,0 29.28572,13.11166 29.28572,29.28572 z"
         sodipodi:ry="29.285715"
         sodipodi:rx="29.285715"
         sodipodi:cy="234.50504"
         sodipodi:cx="229.28572"
         id="path3424"
         style="fill:#ffffff;fill-opacity:1;fill-rule:nonzero;stroke:#000000;stroke-width:3;stroke-linecap:round;stroke-linejoin:round;stroke-miterlimit:4;stroke-opacity:1;stroke-dasharray:none;stroke-dashoffset:0"
         sodipodi:type="arc" />
      <path
         transform="translate(352.71429,6.4285623)"
         d="m 258.57144,234.50504 c 0,16.17405 -13.11167,29.28571 -29.28572,29.28571 -16.17405,0 -29.28571,-13.11166 -29.28571,-29.28571 0,-16.17406 13.11166,-29.28572 29.28571,-29.28572 16.17405,0 29.28572,13.11166 29.28572,29.28572 z"
         sodipodi:ry="29.285715"
         sodipodi:rx="29.285715"
         sodipodi:cy="234.50504"
         sodipodi:cx="229.28572"
         id="path3426"
         style="fill:#fefefe;fill-opacity:1;fill-rule:nonzero;stroke:#000000;stroke-width:3;stroke-linecap:round;stroke-linejoin:round;stroke-miterlimit:4;stroke-opacity:1;stroke-dasharray:none;stroke-dashoffset:0"
         sodipodi:type="arc" />
      <path
         transform="translate(254.14288,6.4285623)"
         d="m 258.57144,234.50504 c 0,16.17405 -13.11167,29.28571 -29.28572,29.28571 -16.17405,0 -29.28571,-13.11166 -29.28571,-29.28571 0,-16.17406 13.11166,-29.28572 29.28571,-29.28572 16.17405,0 29.28572,13.11166 29.28572,29.28572 z"
         sodipodi:ry="29.285715"
         sodipodi:rx="29.285715"
         sodipodi:cy="234.50504"
         sodipodi:cx="229.28572"
         id="path3430"
         style="fill:#ffffff;fill-opacity:1;fill-rule:nonzero;stroke:#000000;stroke-width:3;stroke-linecap:round;stroke-linejoin:round;stroke-miterlimit:4;stroke-opacity:1;stroke-dasharray:none;stroke-dashoffset:0"
         sodipodi:type="arc" />
      <path
         id="path3452"
         d="m 162.28583,368.07651 442.85715,0"
         style="fill:none;stroke:#000000;stroke-width:2.99999928;stroke-linecap:butt;stroke-linejoin:miter;stroke-miterlimit:4;stroke-opacity:1;stroke-dasharray:none"
         inkscape:connector-curvature="0" />
      <path
         id="path3454"
         d="m 162.28583,448.36221 442.85715,0"
         style="fill:none;stroke:#000000;stroke-width:2.99999928;stroke-linecap:butt;stroke-linejoin:miter;stroke-miterlimit:4;stroke-opacity:1;stroke-dasharray:none"
         inkscape:connector-curvature="0" />
      <path
         id="path3456"
         d="m 162.28583,528.64792 442.85715,0"
         style="fill:none;stroke:#000000;stroke-width:2.99999928;stroke-linecap:butt;stroke-linejoin:miter;stroke-miterlimit:4;stroke-opacity:1;stroke-dasharray:none"
         inkscape:connector-curvature="0" />
      <path
         id="path3458"
         d="m 162.28583,608.93362 442.85715,0"
         style="fill:none;stroke:#000000;stroke-width:2.99999928;stroke-linecap:butt;stroke-linejoin:miter;stroke-miterlimit:4;stroke-opacity:1;stroke-dasharray:none"
         inkscape:connector-curvature="0" />
      <path
         id="path3460"
         d="m 162.28583,769.50504 442.85715,0"
         style="fill:none;stroke:#000000;stroke-width:2.99999928;stroke-linecap:butt;stroke-linejoin:miter;stroke-miterlimit:4;stroke-opacity:1;stroke-dasharray:none"
         inkscape:connector-curvature="0" />
      <path
         id="path3462"
         d="m 162.28583,689.21933 442.85715,0"
         style="fill:none;stroke:#000000;stroke-width:2.99999928;stroke-linecap:butt;stroke-linejoin:miter;stroke-miterlimit:4;stroke-opacity:1;stroke-dasharray:none"
         inkscape:connector-curvature="0" />
      <path
         sodipodi:nodetypes="cssssssssssssssssssssssc"
         id="path3506"
         d="m 173.76608,162.42003 c 0,1.69696 0,6.92964 0,10.28522 0,3.61433 0.8458,5.54853 1.62398,8.66123 0.86709,3.46836 -1.46052,5.30074 -2.16531,8.11991 -0.6546,2.6184 0.36388,5.31247 0.812,7.10493 0.58411,2.33646 -0.61061,4.39181 0.0677,7.10492 0.67193,2.68771 1.57292,5.54982 1.15032,7.24025 -0.83299,3.33194 -1.48865,4.31357 -1.48865,7.78158 0,3.92689 -0.3223,4.52071 3.24796,5.41327 1.22316,0.30579 2.1189,4.82554 3.24797,5.95461 2.77641,2.77641 2.78846,5.45418 5.9546,7.03725 2.64954,1.32477 5.23156,-2.10347 6.49592,-3.78929 1.58425,-2.11233 1.3859,-3.24796 5.41328,-3.24796 0.70975,0 4.95721,-3.83193 5.9546,-4.33062 2.20064,-1.10033 1.74604,-5.49939 1.28566,-8.25525 -0.58275,-3.48832 -1.84662,-6.05444 -1.89466,-8.5259 -0.041,-2.11208 -0.60899,-6.43284 -0.60899,-8.39057 0,-3.92414 -0.22902,-2.89923 -0.40599,-6.22527 -0.12336,-2.31841 -0.48253,-6.1898 0,-8.11991 0.61248,-2.44993 0.54132,-5.07883 0.54132,-8.11991 0,-3.69441 -4.279,-8.41197 -6.49592,-11.36787 -1.69322,-2.25763 -2.3472,-3.33891 -5.41328,-4.87195 -2.85747,-1.42874 -6.50628,-1.08265 -9.74389,-1.08265 -0.72177,0 -1.44354,0 -2.16531,0"
         style="fill:#ffffff;fill-opacity:1;fill-rule:evenodd;stroke:none"
         inkscape:connector-curvature="0" />
      <path
         sodipodi:nodetypes="csssssssssssssssssssssssssssc"
         id="path3512"
         d="m 274.99429,151.05215 c -4.17551,0 -3.3247,5.25981 -2.16531,7.57859 0.87143,1.74286 2.50747,3.93227 2.70664,4.33061 1.22783,2.45568 0.2334,1.93191 -1.62398,3.7893 -2.49218,2.49217 -4.33062,3.51874 -4.33062,7.57858 0,3.45145 0.96136,5.43199 2.16531,7.03725 0.23036,0.30715 1.38391,5.83692 1.62398,7.03726 0.92318,4.61589 -0.74562,1.89119 1.01499,6.08993 1.10218,2.62852 1.21799,5.27534 1.21799,7.98458 0,3.28219 0.47366,2.02218 0.47366,5.9546 0,2.94254 -0.54133,5.17927 -0.54133,8.11991 0,3.35132 0.0294,4.90134 1.62398,6.49593 1.84179,1.84179 2.34215,3.51593 4.87195,5.41327 2.00489,1.50367 4.69298,1.08266 7.57858,1.08266 2.74288,0 6.20004,-0.0614 8.11991,-0.54133 2.00976,-0.50244 1.99441,-2.70664 5.9546,-2.70664 0.79802,0 1.62398,-5.92776 1.62398,-7.03725 0,-2.93602 -4.36046,-5.83531 -4.53362,-8.79657 -0.23408,-4.0709 0.61589,-3.44408 0.406,-7.78158 -0.0712,-1.448 0.33833,-5.59061 0.33833,-7.24025 0,-3.07185 0.88003,-4.06145 1.62398,-7.03726 0.71289,-2.85155 0.42272,-6.02149 1.08266,-8.66124 0.70361,-2.81444 0.54748,-4.89655 1.08265,-7.03725 0.62405,-2.49621 -0.54132,-5.4478 -0.54132,-8.11991 0,-1.2631 0,-2.5262 0,-3.78929 0,-2.73059 -6.1891,0.84816 -8.11991,-1.08266 -2.34734,-2.34733 -6.36966,-3.73878 -9.20257,-4.87195 -2.12678,-0.85071 -3.55496,-1.62398 -6.49593,-1.62398 -1.90932,0 -4.17334,-1.27468 -5.9546,-2.16531 z"
         style="fill:#ffffff;fill-opacity:1;fill-rule:evenodd;stroke:none"
         inkscape:connector-curvature="0" />
      <path
         transform="translate(155.57144,6.4285623)"
         d="m 258.57144,234.50504 c 0,16.17405 -13.11167,29.28571 -29.28572,29.28571 -16.17405,0 -29.28571,-13.11166 -29.28571,-29.28571 0,-16.17406 13.11166,-29.28572 29.28571,-29.28572 16.17405,0 29.28572,13.11166 29.28572,29.28572 z"
         sodipodi:ry="29.285715"
         sodipodi:rx="29.285715"
         sodipodi:cy="234.50504"
         sodipodi:cx="229.28572"
         id="path3428"
         style="fill:#fefffd;fill-opacity:1;fill-rule:nonzero;stroke:#000000;stroke-width:3;stroke-linecap:round;stroke-linejoin:round;stroke-miterlimit:4;stroke-opacity:1;stroke-dasharray:none;stroke-dashoffset:0"
         sodipodi:type="arc" />
      <path
         sodipodi:nodetypes="csssssssssssssssssssssc"
         id="path3518"
         d="m 375.13985,152.67613 c 0,3.05968 1.80473,4.5123 2.70664,8.11992 1.32505,5.30022 -2.54713,8.08767 -5.41328,11.9092 -2.2933,3.05774 0.0655,7.64412 2.16531,9.74389 2.03863,2.03863 2.09042,4.6302 1.62398,6.49593 -0.93791,3.75166 -2.02997,2.86251 -2.02997,7.91691 0,3.48163 0.37744,2.38786 0.40599,6.29293 0.0129,1.76374 0.11421,5.73477 0.54133,7.44325 0.70732,2.82927 1.08265,5.06655 1.08265,8.11991 0,2.07899 3.98802,4.70065 5.41328,5.41327 3.60201,1.80101 6.02973,2.16531 10.28522,2.16531 3.39085,0 5.06962,-2.42887 6.49593,-4.33061 1.42401,-1.89868 4.91446,-0.0213 7.03725,-1.08266 1.75944,-0.87972 -1.96231,-6.69701 -1.96231,-8.32291 0,-2.96338 0.203,-4.75622 0.203,-7.64624 0,-3.15825 -0.25421,-4.7037 -0.203,-8.11992 0.0409,-2.73005 1.04005,-5.90447 -0.203,-8.39057 -1.37239,-2.74478 0.40714,-6.7643 -1.08265,-9.74389 -1.86353,-3.72706 -1.63838,-6.23247 -5.41328,-8.11991 -2.38571,-1.19286 -4.15723,-3.98385 -5.41327,-6.49593 -1.61262,-3.22524 -3.54059,-5.16458 -5.9546,-7.57858 -1.47757,-1.47758 -4.8315,-2.14509 -5.9546,-2.70664 -2.06635,-1.03318 -1.42551,-1.08266 -4.33062,-1.08266 z"
         style="fill:#ffffff;fill-opacity:1;fill-rule:evenodd;stroke:none"
         inkscape:connector-curvature="0" />
      <path
         sodipodi:nodetypes="csssssssssssssssssc"
         id="path3520"
         d="m 469.33081,174.32923 c -3.72604,-1.86302 -1.08266,8.28469 -1.08266,12.45053 0,2.70663 0,5.41327 0,8.11991 0,3.11494 -0.37219,5.81939 -1.08265,8.66124 -0.71399,2.85595 0.74424,4.6016 0,7.57858 -0.61884,2.47537 -0.54133,5.59459 -0.54133,8.11991 0,3.3014 1.25203,3.6963 3.78929,4.33062 3.06413,0.76603 6.16691,1.54172 8.66124,2.16531 2.32565,0.58141 7.89045,-0.48397 10.28522,-1.08266 3.79556,-0.94889 4.57445,-2.05799 5.41327,-5.41327 1.19415,-4.77659 -5.44638,-3.3025 -3.92462,-10.55588 0.79048,-3.7678 0.8374,-2.8928 2.63897,-6.49593 1.30223,-2.60446 5.07494,-4.92755 5.07494,-7.84925 0,-3.02329 0.54133,-6.5154 0.54133,-9.74389 0,-3.26433 -0.5131,-5.92637 -2.16531,-7.57858 -1.54775,-1.54776 -6.3766,-1.08266 -8.66123,-1.08266 -0.0116,0 -8.90314,-7.29833 -11.36788,-8.11991 -4.50135,-1.50045 -10.81996,-2.70005 -5.41327,2.70664 0.46004,0.46004 1.08265,0.72177 1.62398,1.08265"
         style="fill:#ffffff;fill-opacity:1;fill-rule:evenodd;stroke:none"
         inkscape:connector-curvature="0" />
      <path
         sodipodi:nodetypes="cssssssssssssssssc"
         id="path3522"
         d="m 565.14575,174.87056 c 1.55749,1.55748 2.70664,7.7641 2.70664,11.9092 0,2.79293 -1.17153,5.05779 -0.54133,7.57858 0.66958,2.67834 1.75931,5.23542 1.75931,8.11992 0,1.71093 -0.0624,6.02752 1.48865,7.57857 0.65967,0.65967 0.62538,7.20536 1.08266,8.11991 1.13928,2.27857 2.53706,4.70237 4.33062,6.49593 2.00897,2.00898 3.43751,2.16531 6.49592,2.16531 3.98374,0 5.15801,-2.36629 7.03726,-4.87194 2.26717,-3.02289 0.14992,-10.58507 1.08265,-12.45053 0.30684,-0.61368 4.85402,-4.03583 5.00729,-4.60129 1.40033,-5.16612 1.75931,-7.58797 4.73661,-9.47322 3.13275,-1.98369 1.08265,-6.47304 1.08265,-10.28522 0,-2.88708 0,-5.77416 0,-8.66124 0,-2.99663 -7.31979,-2.16531 -9.74389,-2.16531 -3.51692,0 -7.17492,-1.08266 -10.82655,-1.08266 -3.03106,0 -6.47133,-0.94117 -9.20256,-1.62398 -0.55358,-0.13839 -1.08266,-0.36088 -1.62399,-0.54133"
         style="fill:#ffffff;fill-opacity:1;fill-rule:evenodd;stroke:none"
         inkscape:connector-curvature="0" />
      <path
         sodipodi:nodetypes="cssc"
         id="path3528"
         d="m 172.56217,193.69576 c 2.17116,1.89137 1.01726,4.99322 1.01726,8.57103 0,1.69454 1.05223,3.91473 1.05223,6.8963 0,3.50606 -0.54183,4.35545 -1.52589,6.42828"
         style="fill:none;stroke:#000000;stroke-width:2.89281034;stroke-linecap:round;stroke-linejoin:miter;stroke-miterlimit:4;stroke-opacity:1;stroke-dasharray:none"
         inkscape:connector-curvature="0" />
      <path
         sodipodi:nodetypes="cssssssssssssssssssssssc"
         id="path3530"
         d="m 202.59176,193.74934 c 0.41675,0.0648 -0.53297,-0.16956 -0.406,0.33834 0.10747,0.42987 -0.0626,0.92228 -0.13533,1.28565 -0.13129,0.65648 -0.23582,1.42501 -0.0677,2.09764 0.0451,0.18044 0.0902,0.36089 0.13533,0.54133 0.18873,0.75492 0.47366,1.17859 0.47366,1.96231 0,0.45357 -0.38407,0.90537 -0.47366,1.35332 -0.0995,0.49728 0.33908,0.8135 0.54133,1.21799 0.19507,0.39015 0.1745,0.83335 0.27066,1.21798 0.11835,0.4734 0.44708,0.95699 0.74432,1.35332 0.26638,0.35517 0.33833,0.70292 0.33833,1.15032 0,0.47366 0,0.94732 0,1.42099 0,0.40734 -0.0401,0.83699 -0.13533,1.21798 -0.0985,0.39409 0,0.94908 0,1.35332 0,0.53117 0.1381,1.22905 0.27067,1.75931 0.11489,0.45959 0.23116,0.857 0.33832,1.28566 0.0918,0.36715 0.13534,0.55957 0.13534,0.94732 0,0.4526 -0.0677,0.85753 -0.0677,1.28565 0,0.38344 0,0.76688 0,1.15032 0,0.27592 0.279,0.54967 0.406,0.67666 0.0357,0.0357 0.0902,0.0451 0.13533,0.0677 0.27567,0.13784 0.50239,0.16406 0.67666,0.33833 0.23223,0.23223 0.3669,0.3669 0.60899,0.60899 0.1624,0.1624 0.35534,0.22001 0.47366,0.33833"
         style="fill:none;stroke:#000000;stroke-width:3;stroke-linecap:round;stroke-linejoin:miter;stroke-miterlimit:4;stroke-opacity:1;stroke-dasharray:none"
         inkscape:connector-curvature="0" />
      <path
         sodipodi:nodetypes="csssssssssssssssssssc"
         id="path3534"
         d="m 272.95425,193.73917 c -0.17969,0.35079 0.45873,0.0889 0.81813,0.26432 0.35824,0.17484 0.57984,0.56595 0.81631,0.79677 0.19418,0.18953 0.20548,0.80224 0.2721,1.06236 0.0742,0.28953 0,0.69574 0,0.99596 0,0.40044 0.19246,0.47449 0.2721,0.86317 0.0707,0.34507 -0.13605,0.73859 -0.13605,1.12875 0,0.33199 0,0.66398 0,0.99595 0,0.42781 0.0154,0.8546 -0.068,1.26156 -0.10583,0.51647 0.3937,1.71222 0.61223,1.92552 0.35152,0.3431 0.61224,-7e-4 0.61224,0.73037 0,0.4429 -0.0379,0.78957 -0.20408,1.19515 -0.14846,0.36226 -0.068,0.86862 -0.068,1.26155 0,0.48692 0,0.97384 0,1.46074 0,0.39839 0,0.79677 0,1.19516 0,0.37625 0,0.7525 0,1.12875 0,0.37625 0,0.75251 0,1.12876 0,0.41215 0.0751,0.54503 0.20408,0.79676 0.15837,0.30916 0.26459,0.70107 0.34013,0.99597 0.0865,0.33783 -0.36629,0.5567 -0.47619,0.66397 -0.12743,0.12438 -0.686,0.20888 -0.81344,0.33326"
         style="fill:none;stroke:#000000;stroke-width:2.97964787;stroke-linecap:round;stroke-linejoin:round;stroke-miterlimit:4;stroke-opacity:1;stroke-dasharray:none"
         inkscape:connector-curvature="0" />
      <path
         sodipodi:nodetypes="csssssssssssssssssssssssc"
         id="path3536"
         d="m 302.46666,193.81701 c -0.12146,-0.0428 -0.79248,0.14737 -1.01499,0.203 -0.0971,0.0243 -0.31249,0.3703 -0.33833,0.47366 -0.0811,0.32425 -0.32276,0.61437 -0.406,0.94732 -0.0784,0.31375 -0.0469,0.66143 -0.13533,1.01499 -0.0796,0.3185 0.011,0.7884 0.0677,1.01499 0.1204,0.48158 0.17327,0.93399 0.27067,1.42099 0.10811,0.54056 0.13533,1.05315 0.13533,1.62398 0,0.49621 0,0.99243 0,1.48865 0,0.49951 -0.0677,1.03909 -0.0677,1.55631 0,0.49271 -0.17008,0.81383 -0.33833,1.15032 -0.17161,0.34323 -0.13533,1.02685 -0.13533,1.48865 0,0.67666 0,1.35332 0,2.02998 0,0.47557 0.0102,0.83248 0.203,1.21799 0.22227,0.44453 0.36407,0.44792 -0.13533,0.94732 -0.25787,0.25787 -0.13533,0.93932 -0.13533,1.28565 0,0.40079 0.19804,0.59908 0.33833,0.87966 0.22055,0.44111 0.33833,0.47313 0.33833,1.01499 0,0.39063 0.1788,0.76361 0.33833,1.08265 0.17582,0.35164 0.31022,0.72941 0.47366,0.94733 0.23236,0.30982 0.32136,0.4567 0.60899,0.74432 0.21797,0.21797 0.39324,0.61635 0.74433,0.87966 0.32021,0.24016 0.60093,0.33027 0.81199,0.54133 0.21854,0.21854 0.49115,0.28378 0.74432,0.47366 0.27887,0.20915 0.63541,0.6288 0.87966,0.81199"
         style="fill:none;stroke:#000000;stroke-width:3;stroke-linecap:round;stroke-linejoin:miter;stroke-miterlimit:4;stroke-opacity:1;stroke-dasharray:none"
         inkscape:connector-curvature="0" />
      <path
         sodipodi:nodetypes="cssssssssssssssssssc"
         id="path3538"
         d="m 374.53086,193.68168 c 0.71747,0.5655 -0.82436,0.35669 -0.67666,0.81199 0.12995,0.40062 0.97226,-0.0178 1.15032,0.33833 0.1929,0.3858 -0.7333,1.17386 -0.81199,1.48865 -0.0942,0.37689 -0.1143,0.72787 -0.203,1.08266 -0.10899,0.43594 0.0677,0.91221 0.0677,1.35331 0,0.45494 0.036,0.82078 0.13533,1.21799 0.11057,0.44227 0.23192,0.72468 0.33833,1.15032 0.1174,0.46962 0.60899,0.6441 0.60899,1.15032 0,0.40098 -0.11074,0.71364 -0.203,1.08266 -0.1114,0.4456 0.12511,0.72388 0.27067,1.01499 0.21451,0.42902 0.33833,0.64843 0.33833,1.15032 0,0.41278 -0.203,0.6725 -0.203,1.08265 0,0.38445 0.0496,0.67185 0.13533,1.01499 0.0776,0.31043 0.44465,0.5606 0.54133,0.94732 0.0705,0.28223 -0.13351,0.80468 -0.203,1.08266 -0.0738,0.29506 0,0.70904 0,1.01499 0,0.36625 0.406,0.5473 0.406,0.94732 0,0.33256 -0.009,0.71344 -0.0677,0.94732 -0.0471,0.18824 -0.33646,0.47179 -0.47366,0.60899"
         style="fill:none;stroke:#000000;stroke-width:3;stroke-linecap:round;stroke-linejoin:miter;stroke-miterlimit:4;stroke-opacity:1;stroke-dasharray:none"
         inkscape:connector-curvature="0" />
      <path
         sodipodi:nodetypes="cssssssssssssssssssssssc"
         id="path3540"
         d="m 404.43919,193.68169 c -0.20894,0.004 -0.74498,0.27131 -0.94732,0.47365 -0.1732,0.17321 -0.0677,0.78164 -0.0677,1.01499 0,0.31754 -0.27066,0.61291 -0.27066,1.01499 0,0.33833 0,0.67666 0,1.01499 0,0.36088 0,0.72177 0,1.08265 0,0.47193 0.13533,0.86647 0.13533,1.35332 0,0.52156 -0.0826,1.07478 -0.20299,1.55632 -0.10555,0.42217 -0.16716,0.68068 0,1.01499 0.2396,0.4792 0.41374,0.9783 0.54132,1.48865 0.15032,0.60127 -0.003,1.09287 -0.13533,1.62398 -0.14651,0.58604 -0.40599,0.97004 -0.40599,1.62398 0,0.67767 0.0225,1.20653 0.27066,1.82698 0.14068,0.35171 0.0677,0.84106 0.0677,1.21799 0,0.40373 -0.24387,0.90784 -0.33832,1.28565 -0.073,0.29184 0.0196,0.75497 0.0677,0.94732 0.10661,0.42646 0.008,0.75954 0.203,1.15032 0.13833,0.27667 0.19563,0.78251 0.27066,1.08266 0.0902,0.36068 0.19195,0.70013 0.27067,1.01499 0.0738,0.29506 0,0.70904 0,1.01498 0,0.41684 0.3102,0.69951 0.40599,1.08266 0.0706,0.28238 0.42887,0.5194 0.54133,0.74432 0.0976,0.19513 0.0307,0.79956 0.0677,0.94733 0.0539,0.21548 0.26909,0.4705 0.406,0.74432"
         style="fill:none;stroke:#000000;stroke-width:3;stroke-linecap:round;stroke-linejoin:miter;stroke-miterlimit:4;stroke-opacity:1;stroke-dasharray:none"
         inkscape:connector-curvature="0" />
      <path
         sodipodi:nodetypes="cssssssssssssssssc"
         id="path3542"
         d="m 467.84216,193.68168 c 0.32396,0.11412 0.5047,0.6034 0.74432,1.08265 0.49869,0.99738 -0.95375,2.5906 -1.21798,3.3833 -0.27863,0.83589 -0.67666,1.55269 -0.67666,2.43597 0,0.76587 0.94732,1.16335 0.94732,1.96232 0,0.45504 0.0677,0.94869 0.0677,1.42098 0,0.0902 0,0.18044 0,0.27066 0,0.43205 -0.0677,0.9037 -0.0677,1.35332 0,0.47366 0,0.94732 0,1.42099 0,0.52336 -0.203,1.0585 -0.203,1.62398 0,0.51196 0.406,0.68441 0.406,1.21798 0,0.29015 -0.203,0.62979 -0.203,1.01499 0,0.43411 0.011,0.78451 -0.13533,1.15032 -0.13123,0.32807 -0.0677,0.84879 -0.0677,1.21799 0,0.38711 -0.0677,0.69272 -0.0677,1.08266 0,0.36088 0,0.72176 0,1.08265 0,0.42622 -0.2499,0.66126 -0.33833,1.01499 -0.0623,0.24929 -0.86583,0.97399 -0.94733,1.08265"
         style="fill:none;stroke:#000000;stroke-width:3;stroke-linecap:round;stroke-linejoin:miter;stroke-miterlimit:4;stroke-opacity:1;stroke-dasharray:none"
         inkscape:connector-curvature="0" />
      <path
         sodipodi:nodetypes="cssssssssssssssssssc"
         id="path3544"
         d="m 498.56248,193.68168 c -0.43528,0.1725 -1.22892,0.49757 -1.08265,1.08265 0.0915,0.36591 0.10655,0.52113 0,0.94733 -0.13095,0.52379 -1.19838,0.69563 -1.48865,1.08265 -0.20238,0.26985 -0.13533,0.75396 -0.13533,1.08266 0,0.3679 -0.45142,0.77839 -0.67666,0.94732 -0.34941,0.26206 -0.47366,0.51609 -0.47366,0.94732 0,0.5036 -0.26756,0.87344 -0.47366,1.28566 -0.15663,0.31325 -0.60603,0.53539 -0.74433,0.81199 -0.15534,0.31067 -0.18518,0.7407 -0.27066,1.08265 -0.0987,0.39499 -0.17538,0.76916 -0.27067,1.15032 -0.1056,0.4224 -0.57065,0.97666 -0.87965,1.28565 -0.32354,0.32354 -0.55937,0.55937 -0.87966,0.87966 -0.39196,0.39196 -0.54133,0.68373 -0.54133,1.21799 0,0.42826 -0.10126,0.67619 -0.27066,1.01499 -0.16962,0.33924 -0.37487,0.55214 -0.47366,0.94732 -0.0836,0.3344 0,0.80059 0,1.15032 0,0.40609 0.0533,0.61914 0.13533,0.94732 0.0578,0.23109 0.35247,0.62313 0.54133,0.81199 0.0551,0.0551 1.94025,0.72377 1.9623,0.81199"
         style="fill:none;stroke:#000000;stroke-width:3;stroke-linecap:round;stroke-linejoin:miter;stroke-miterlimit:4;stroke-opacity:1;stroke-dasharray:none"
         inkscape:connector-curvature="0" />
      <path
         sodipodi:nodetypes="cssssssssssssssssc"
         id="path3546"
         d="m 567.10806,193.81701 c 0.43669,-0.0463 1.50848,-0.0957 1.75931,0.406 0.20484,0.40966 -0.0677,1.264 -0.0677,1.69165 0,0.70244 -0.0342,1.2165 0.13533,1.89464 0.0226,0.0902 0.0451,0.18044 0.0677,0.27066 0.0398,0.15931 0.0902,0.31578 0.13533,0.47367 0.336,1.17602 -0.41111,2.05042 -0.67666,3.11263 -0.14761,0.59045 -0.18547,0.90303 0.203,1.42098 0.0957,0.12759 0.22555,0.22556 0.33833,0.33833 0.30976,0.30977 0.58045,0.90083 0.67666,1.28565 0.10028,0.40115 0.0677,0.85693 0.0677,1.28566 0,0.60797 0.13308,1.00596 0.27067,1.55631 0.0965,0.3859 0.17473,0.89079 0.33832,1.21799 0.17971,0.35942 0.0279,0.80008 0.203,1.15032 0.15031,0.30062 0.0677,0.8615 0.0677,1.21799 0,0.36041 0.19262,0.89544 0.27066,1.28565 0.0717,0.35836 0.13533,0.65188 0.13533,1.01499 0,0.0319 -0.22555,0.45111 -0.20299,0.47366"
         style="fill:none;stroke:#000000;stroke-width:3;stroke-linecap:round;stroke-linejoin:miter;stroke-miterlimit:4;stroke-opacity:1;stroke-dasharray:none"
         inkscape:connector-curvature="0" />
      <path
         sodipodi:nodetypes="csssssssssc"
         id="path3548"
         d="m 590.38514,212.8988 c 0,0.18286 -1.34074,-1.51381 -0.33833,-3.51863 1.19572,-2.39144 3.7956,-3.62485 5.81927,-5.14261 0.25518,-0.19138 0.4511,-0.4511 0.67666,-0.67666 0.58128,-0.58128 -0.28469,-2.16777 -0.406,-2.7743 -0.15761,-0.78803 -0.14446,-2.02085 0.406,-2.5713 0.31533,-0.31534 0.594,-0.97751 0.74432,-1.35332 0.21191,-0.52978 0.14362,-0.91764 0.74433,-1.21799 0.43918,-0.21959 0.77586,-0.52326 1.21798,-0.74432 0.36914,-0.18457 0.43011,-0.65722 0.54133,-0.87966 0.0444,-0.0887 2.0523,-0.24799 2.09765,-0.27066"
         style="fill:none;stroke:#000000;stroke-width:3;stroke-linecap:round;stroke-linejoin:miter;stroke-miterlimit:4;stroke-opacity:1;stroke-dasharray:none"
         inkscape:connector-curvature="0" />
    </g>
  </g>
</svg>
