<?xml version="1.0" encoding="UTF-8" standalone="no"?>
<!-- Svg Vector Icons : http://www.onlinewebfonts.com/icon -->

<svg
   xmlns:dc="http://purl.org/dc/elements/1.1/"
   xmlns:cc="http://creativecommons.org/ns#"
   xmlns:rdf="http://www.w3.org/1999/02/22-rdf-syntax-ns#"
   xmlns:svg="http://www.w3.org/2000/svg"
   xmlns="http://www.w3.org/2000/svg"
   xmlns:sodipodi="http://sodipodi.sourceforge.net/DTD/sodipodi-0.dtd"
   xmlns:inkscape="http://www.inkscape.org/namespaces/inkscape"
   version="1.1"
   x="0px"
   y="0px"
   viewBox="0 0 23.999996 24"
   enable-background="new 0 0 1000 1000"
   xml:space="preserve"
   id="svg12"
   sodipodi:docname="project.svg"
   width="23.999996"
   height="24"
   inkscape:version="0.92.2 2405546, 2018-03-11"><defs
   id="defs16" /><sodipodi:namedview
   pagecolor="#ffffff"
   bordercolor="#666666"
   borderopacity="1"
   objecttolerance="10"
   gridtolerance="10"
   guidetolerance="10"
   inkscape:pageopacity="0"
   inkscape:pageshadow="2"
   inkscape:window-width="2560"
   inkscape:window-height="1016"
   id="namedview14"
   showgrid="false"
   fit-margin-top="0"
   fit-margin-left="0"
   fit-margin-right="0"
   fit-margin-bottom="0"
   inkscape:zoom="3.776"
   inkscape:cx="-54.350657"
   inkscape:cy="-13.370127"
   inkscape:window-x="0"
   inkscape:window-y="27"
   inkscape:window-maximized="1"
   inkscape:current-layer="svg12" />
<metadata
   id="metadata2"> Svg Vector Icons : http://www.onlinewebfonts.com/icon <rdf:RDF><cc:Work
     rdf:about=""><dc:format>image/svg+xml</dc:format><dc:type
       rdf:resource="http://purl.org/dc/dcmitype/StillImage" /><dc:title></dc:title></cc:Work></rdf:RDF></metadata>

<rect
   style="fill:#ffffff;fill-opacity:1;stroke:none;stroke-width:0.37678272;stroke-miterlimit:4;stroke-dasharray:none;stroke-opacity:1"
   id="rect823"
   width="23.623219"
   height="23.623217"
   x="0.1883783"
   y="0.18838631" /><g
   id="g10"
   transform="matrix(0.02448967,0,0,0.0314985,-0.2448967,-3.7470287)"><path
     d="m 866.3,480 c -28.8,28.2 -48,45.7 -48,45.7 -30,30.4 -32.7,44.5 -32.7,88.3 v 107.2 c 0,43.8 -34.1,79.6 -75.8,79.6 H 197.7 C 156,800.8 121.9,765 121.9,721.2 V 370.5 c 0,-43.8 34.1,-79.6 75.8,-79.6 H 539 c 50.9,0 71.3,-2.6 82.8,-14.6 l 49.8,-56.4 c 0,0 10.9,-10.7 10.7,-14.8 -1.6,-8.3 -11.6,-8.8 -62.6,-8.8 H 85.8 C 44.1,196.3 10,232.1 10,275.9 v 525.4 c 0,43.8 34.1,79.6 75.8,79.6 h 726.7 c 41.7,0 75.8,-35.8 75.8,-79.6 V 544.2 c 0,-43.8 -0.9,-53.8 -3,-60.6 -2.1,-6.8 -10.8,-10.1 -19,-3.6 z"
     id="path4"
     inkscape:connector-curvature="0" /><path
     d="M 946.8,308.7 C 1015,223.4 992,201.3 949.5,156.6 916.4,121.8 889.4,91.4 805.7,160.4 Z"
     id="path6"
     inkscape:connector-curvature="0" /><path
     d="m 763.8,198.7 c -7.2,7.1 -14.7,14.7 -22.6,23 -1.4,1.6 -221,232.3 -221,232.3 -31.2,30.7 -82.9,203.3 -65.1,222.1 17.9,18.8 180.5,-31.8 210.6,-67.6 0,0 220.1,-231.2 221.9,-233.1 7.9,-8.3 15.2,-16.1 22,-23.6 z"
     id="path8"
     inkscape:connector-curvature="0" /></g></svg>
